<svg width="14" height="16" viewBox="0 0 16 16" fill="none" xmlns="http://www.w3.org/2000/svg">
              <path d="M15 8C15 6.04 11.9264 4.5 8 4.5L8.50909 4.11818C8.60003 4.04998 8.64768 3.93844 8.63408 3.82558C8.62048 3.71272 8.54771 3.61569 8.44317 3.57103C8.33863 3.52638 8.21821 3.54089 8.12727 3.60909L6.85455 4.56364L6.79091 4.64C6.74889 4.72414 6.74889 4.82314 6.79091 4.90727L6.85455 4.98364L8.12727 5.93818C8.18213 5.97991 8.24926 6.00229 8.31818 6.00182C8.4181 6.00084 8.512 5.95389 8.57273 5.87455C8.67816 5.73396 8.64967 5.53453 8.50909 5.42909L8 5.13636C11.4491 5.13636 14.3636 6.44727 14.3636 8C14.3636 9.01818 13.0909 9.90909 11.2836 10.4373C11.4296 9.6331 11.502 8.81731 11.5 8L11.8882 8.50909C11.9498 8.61591 12.0676 8.67752 12.1904 8.6672C12.3133 8.65688 12.4192 8.57648 12.4621 8.46088C12.505 8.34528 12.4773 8.21529 12.3909 8.12727L11.4364 6.85455L11.36 6.79091H11.3282C11.244 6.74889 11.145 6.74889 11.0609 6.79091H11.0291L10.9527 6.85455L9.99818 8.12727C9.89275 8.26785 9.92124 8.46729 10.0618 8.57273C10.1167 8.61446 10.1838 8.63683 10.2527 8.63636C10.3526 8.63539 10.4465 8.58844 10.5073 8.50909L10.8891 8C10.8903 8.87416 10.8029 9.7462 10.6282 10.6027C9.76332 10.7792 8.88267 10.8666 8 10.8636C7.12584 10.8649 6.2538 10.7774 5.39727 10.6027C5.22255 9.7462 5.13513 8.87416 5.13636 8C5.13636 4.55091 6.44727 1.63636 8 1.63636C8.71273 1.63636 9.4 2.27273 9.94091 3.36727C9.99093 3.46958 10.0917 3.53743 10.2053 3.54527C10.3189 3.55311 10.4281 3.49974 10.4917 3.40527C10.5553 3.3108 10.5637 3.18958 10.5136 3.08727C9.85818 1.74455 8.96727 1 8 1C6.04 1 4.5 4.07364 4.5 8C4.49797 8.81731 4.57039 9.6331 4.71636 10.4373C2.90909 9.90909 1.63636 9.01818 1.63636 8C1.63636 7.28091 2.27273 6.59364 3.36727 6.09091C3.46958 6.04089 3.53743 5.94009 3.54527 5.82648C3.55311 5.71287 3.49974 5.60371 3.40527 5.54012C3.3108 5.47653 3.18958 5.46817 3.08727 5.51818C1.74455 6.12909 1 7.02 1 8C1 9.39364 2.55909 10.5455 4.86273 11.1373C5.45455 13.4409 6.60636 15 8 15C9.39364 15 10.5455 13.4409 11.1373 11.1373C13.4409 10.5455 15 9.39364 15 8ZM8 14.3636C6.98182 14.3636 6.09091 13.0909 5.56273 11.2836C6.3669 11.4296 7.18269 11.502 8 11.5C8.81731 11.502 9.6331 11.4296 10.4373 11.2836C9.90909 13.0909 9.01818 14.3636 8 14.3636Z" fill="#f4f5ef"></path>
              <path fill-rule="evenodd" clip-rule="evenodd" d="M6.85455 4.56369L8.12728 3.60914C8.21822 3.54093 8.33864 3.52643 8.44317 3.57108C8.54771 3.61573 8.62049 3.71277 8.63408 3.82563C8.64768 3.93849 8.60003 4.05003 8.50909 4.11823L8 4.50005C8.1102 4.50005 8.21972 4.50126 8.32852 4.50366C12.0965 4.58682 15 6.09506 15 8.00005C15 9.39369 13.4409 10.5455 11.1373 11.1373C10.5455 13.441 9.39364 15 8 15C6.60637 15 5.45455 13.441 4.86273 11.1373C2.55909 10.5455 1 9.39369 1 8.00005C1 7.02005 1.74455 6.12914 3.08728 5.51823C3.18958 5.46821 3.3108 5.47658 3.40527 5.54017C3.49974 5.60376 3.55311 5.71292 3.54527 5.82653C3.53744 5.94014 3.46958 6.04094 3.36728 6.09096C2.27273 6.59369 1.63637 7.28096 1.63637 8.00005C1.63637 8.97741 2.8091 9.83751 4.50164 10.3721C4.57233 10.3944 4.64392 10.4161 4.71637 10.4373C4.70307 10.3641 4.69039 10.2908 4.67832 10.2174C4.55782 9.48456 4.49816 8.74293 4.5 8.00005C4.5 4.07368 6.04 1.00005 8 1.00005C8.96728 1.00005 9.85818 1.74459 10.5136 3.08732C10.5637 3.18963 10.5553 3.31085 10.4917 3.40532C10.4281 3.49979 10.3189 3.55316 10.2053 3.54532C10.0917 3.53748 9.99093 3.46963 9.94091 3.36732C9.4 2.27278 8.71273 1.63641 8 1.63641C6.44728 1.63641 5.13637 4.55096 5.13637 8.00005C5.13514 8.87421 5.22255 9.74625 5.39728 10.6028C6.2538 10.7775 7.12584 10.8649 8 10.8637C8.88267 10.8666 9.76332 10.7792 10.6282 10.6028C10.7803 9.85689 10.8663 9.09923 10.8851 8.33866C10.8879 8.22584 10.8893 8.11296 10.8891 8.00005L10.5073 8.50914C10.4465 8.58849 10.3526 8.63544 10.2527 8.63641C10.1838 8.63688 10.1167 8.6145 10.0618 8.57278C9.92124 8.46734 9.89275 8.2679 9.99819 8.12732L10.9527 6.85459L11.0291 6.79096H11.0609C11.145 6.74894 11.244 6.74894 11.3282 6.79096H11.36L11.4364 6.85459L12.3909 8.12732C12.4773 8.21533 12.505 8.34533 12.4621 8.46093C12.4192 8.57653 12.3133 8.65692 12.1904 8.66725C12.0676 8.67757 11.9498 8.61596 11.8882 8.50914L11.5 8.00005C11.5003 8.10866 11.4992 8.21725 11.4969 8.32579C11.4831 8.9596 11.4246 9.5917 11.3217 10.2174C11.3096 10.2908 11.2969 10.3641 11.2836 10.4373C11.3561 10.4161 11.4277 10.3944 11.4984 10.3721C13.1909 9.83751 14.3636 8.97741 14.3636 8.00005C14.3636 6.50957 11.6781 5.24191 8.4121 5.14266C8.2757 5.13852 8.13828 5.13641 8 5.13641L8.50909 5.42914C8.64968 5.53458 8.67817 5.73401 8.57273 5.87459C8.512 5.95394 8.4181 6.00089 8.31819 6.00187C8.24926 6.00234 8.18213 5.97996 8.12728 5.93823L6.85455 4.98369L6.79091 4.90732C6.74889 4.82319 6.74889 4.72418 6.79091 4.64005L6.85455 4.56369ZM8.00619 6.09741C8.00601 6.09727 8.00637 6.09755 8.00619 6.09741L6.71586 5.12967L6.62238 5.01749L6.61199 4.99668C6.54187 4.85629 6.54187 4.69108 6.61199 4.55069L6.62238 4.52988L6.71586 4.4177L8.00728 3.44914C8.15538 3.33806 8.35149 3.31444 8.52174 3.38716C8.69198 3.45988 8.8105 3.6179 8.83265 3.8017C8.85479 3.9855 8.7772 4.16715 8.62909 4.27823L8.58486 4.31141C10.3353 4.37979 11.897 4.75338 13.0619 5.33619C14.3451 5.97818 15.2 6.90539 15.2 8.00005C15.2 8.77874 14.7632 9.46721 14.0566 10.0262C13.3732 10.5669 12.4206 11.0015 11.3011 11.3011C11.0014 12.4207 10.5668 13.3732 10.0262 14.0566C9.46716 14.7633 8.77869 15.2 8 15.2C7.22131 15.2 6.53285 14.7633 5.97383 14.0566C5.43319 13.3732 4.99857 12.4207 4.69893 11.3011C3.5794 11.0015 2.62684 10.5669 1.94342 10.0262C1.23677 9.46721 0.800003 8.77874 0.800003 8.00005C0.800003 6.90616 1.62947 5.96239 3.0022 5.33721C3.16812 5.25731 3.36406 5.27134 3.51696 5.37426C3.6707 5.47775 3.75756 5.6554 3.7448 5.8403C3.73204 6.02519 3.62162 6.18923 3.45512 6.27063L3.45078 6.27276C2.37237 6.76807 1.83637 7.40538 1.83637 8.00005C1.83637 8.41974 2.09904 8.84513 2.62012 9.24356C3.07724 9.59308 3.71108 9.90344 4.46497 10.1502C4.35342 9.43905 4.29823 8.72002 4.3 7.99984C4.30003 6.01338 4.68918 4.23127 5.33614 2.93817C5.97813 1.655 6.90535 0.800049 8 0.800049C9.08157 0.800049 10.025 1.63047 10.6934 2.99959C10.7747 3.16606 10.7611 3.36329 10.6576 3.517C10.5541 3.67075 10.3765 3.7576 10.1916 3.74485C10.0068 3.7321 9.84288 3.62183 9.76141 3.45553C9.49821 2.92302 9.20494 2.51375 8.90104 2.24002C8.59776 1.96685 8.29339 1.83641 8 1.83641C7.67839 1.83641 7.35236 1.98672 7.03591 2.29008C6.71887 2.594 6.42249 3.04194 6.1683 3.60688C5.6602 4.73618 5.33637 6.29817 5.33637 8.00005C5.33522 8.81646 5.41261 9.63126 5.5674 10.4327C6.36879 10.5874 7.18331 10.6648 7.99972 10.6637C8.8245 10.6665 9.64845 10.5891 10.4581 10.4327C10.5737 9.83385 10.6462 9.22771 10.6749 8.61894L10.6673 8.62914L10.6661 8.6307C10.5679 8.75894 10.4162 8.83482 10.2547 8.8364C10.1418 8.83717 10.0312 8.80059 9.94128 8.73237C9.7128 8.56055 9.66661 8.23609 9.83819 8.00732L10.8067 6.71591L10.9567 6.59096H11.02C11.1325 6.54894 11.2566 6.54894 11.3691 6.59096H11.4324L11.5823 6.71591L12.5439 7.99799C12.6765 8.14102 12.7178 8.34693 12.6496 8.53054C12.5797 8.71881 12.4073 8.84973 12.2072 8.86654C12.0119 8.88295 11.8245 8.78776 11.7223 8.62143L11.6892 8.578C11.6682 9.10453 11.6167 9.62947 11.535 10.1502C12.2889 9.90344 12.9228 9.59308 13.3799 9.24356C13.901 8.84513 14.1636 8.41974 14.1636 8.00005C14.1636 7.67843 14.0133 7.35241 13.71 7.03595C13.4061 6.71891 12.9581 6.42253 12.3932 6.16835C11.4251 5.73279 10.1391 5.43265 8.7196 5.35581C8.86705 5.53604 8.87871 5.79996 8.73273 5.99459L8.73156 5.99616C8.6334 6.1244 8.48163 6.20028 8.32014 6.20186C8.20724 6.20263 8.09613 6.16564 8.00619 6.09741ZM6.75649 13.3799C7.15492 13.901 7.58031 14.1637 8 14.1637C8.41969 14.1637 8.84508 13.901 9.24351 13.3799C9.59303 12.9228 9.90339 12.289 10.1501 11.5351C9.43907 11.6466 8.72011 11.7018 8 11.7C7.27989 11.7018 6.56094 11.6466 5.84986 11.5351C6.09661 12.289 6.40697 12.9228 6.75649 13.3799ZM5.62799 11.4984C5.60566 11.4277 5.5839 11.3561 5.56273 11.2837C5.63596 11.297 5.70928 11.3097 5.7827 11.3217C6.51549 11.4422 7.25712 11.5019 8 11.5C8.74289 11.5019 9.48452 11.4422 10.2173 11.3217M10.4373 11.2837C10.4161 11.3561 10.3943 11.4277 10.372 11.4984C9.83746 13.191 8.97737 14.3637 8 14.3637C7.02264 14.3637 6.16255 13.191 5.62799 11.4984" fill="#f4f5ef"></path>
            </svg>