<svg xmlns="http://www.w3.org/2000/svg" width="30" viewBox="0 0 30 30" height="30" version="1.0"><defs><clipPath id="a"><path d="M 0.484375 0 L 29.515625 0 L 29.515625 29.03125 L 0.484375 29.03125 Z M 0.484375 0"/></clipPath></defs><g clip-path="url(#a)" fill="#FFF"><path d="M 120.8125 -5.203125 L 4.300781 -5.203125 C 3.839844 -5.203125 3.457031 -5.203125 3 -5.203125 C 2.617188 -5.203125 2.308594 -5.203125 1.925781 -5.203125 C 1.160156 -5.203125 0.394531 -5.125 -0.371094 -5.046875 C -1.136719 -4.894531 -1.902344 -4.742188 -2.589844 -4.433594 C -3.203125 -4.050781 -3.890625 -3.59375 -4.425781 -3.132812 C -4.960938 -2.671875 -5.421875 -2.058594 -5.804688 -1.449219 C -6.109375 -0.835938 -6.339844 -0.144531 -6.492188 0.542969 C -6.648438 1.15625 -6.722656 1.921875 -6.722656 2.613281 C -6.722656 2.917969 -6.722656 3.226562 -6.722656 3.53125 L -6.722656 27.4375 C -6.722656 27.742188 -6.722656 28.046875 -6.722656 28.355469 C -6.722656 29.042969 -6.648438 29.734375 -6.492188 30.421875 C -6.339844 31.113281 -6.109375 31.800781 -5.804688 32.414062 C -5.421875 33.027344 -4.960938 33.566406 -4.425781 34.101562 C -3.890625 34.5625 -3.277344 35.019531 -2.589844 35.328125 C -1.902344 35.632812 -1.136719 35.863281 -0.371094 36.015625 C 0.394531 36.09375 1.160156 36.167969 1.925781 36.167969 C 2.308594 36.167969 2.617188 36.167969 3 36.167969 C 3.457031 36.167969 3.839844 36.167969 4.300781 36.167969 L 120.8125 36.167969 C 121.195312 36.167969 121.652344 36.167969 122.035156 36.167969 C 122.417969 36.167969 122.726562 36.167969 123.109375 36.167969 C 123.875 36.167969 124.640625 36.09375 125.40625 36.015625 C 126.171875 35.863281 126.9375 35.710938 127.625 35.328125 C 128.3125 35.019531 128.925781 34.636719 129.460938 34.101562 C 130 33.640625 130.457031 33.027344 130.839844 32.414062 C 131.222656 31.800781 131.453125 31.113281 131.527344 30.421875 C 131.683594 29.734375 131.757812 29.042969 131.757812 28.355469 C 131.757812 28.046875 131.757812 27.742188 131.757812 27.4375 C 131.757812 27.050781 131.757812 26.667969 131.757812 26.285156 L 131.757812 4.683594 C 131.757812 4.296875 131.757812 3.914062 131.757812 3.53125 C 131.757812 3.226562 131.757812 2.917969 131.757812 2.613281 C 131.757812 1.921875 131.683594 1.234375 131.527344 0.542969 C 131.375 -0.144531 131.144531 -0.835938 130.839844 -1.449219 C 130.152344 -2.671875 129.003906 -3.667969 127.625 -4.359375 C 126.9375 -4.664062 126.171875 -4.894531 125.40625 -4.972656 C 124.640625 -5.046875 123.875 -5.125 123.109375 -5.125 C 122.726562 -5.125 122.417969 -5.125 122.035156 -5.125 C 121.652344 -5.203125 121.195312 -5.203125 120.8125 -5.203125 Z M 120.8125 -5.203125"/><path d="M 3.074219 35.25 C 2.691406 35.25 2.386719 35.25 2.003906 35.25 C 1.316406 35.25 0.550781 35.171875 -0.140625 35.097656 C -0.828125 35.019531 -1.441406 34.789062 -2.054688 34.5625 C -2.667969 34.253906 -3.203125 33.871094 -3.660156 33.488281 C -4.121094 33.105469 -4.503906 32.570312 -4.808594 32.03125 C -5.117188 31.496094 -5.34375 30.882812 -5.421875 30.347656 C -5.574219 29.734375 -5.574219 29.042969 -5.652344 28.433594 C -5.652344 28.203125 -5.652344 27.511719 -5.652344 27.511719 L -5.652344 3.53125 C -5.652344 3.53125 -5.652344 2.84375 -5.652344 2.613281 C -5.652344 2 -5.574219 1.3125 -5.421875 0.699219 C -5.421875 0.0859375 -5.191406 -0.527344 -4.886719 -1.0625 C -4.578125 -1.601562 -4.195312 -2.058594 -3.660156 -2.519531 C -3.203125 -2.980469 -2.667969 -3.285156 -2.054688 -3.59375 C -1.441406 -3.898438 -0.828125 -4.050781 -0.140625 -4.128906 C 0.550781 -4.207031 1.316406 -4.28125 2.003906 -4.28125 L 123.109375 -4.28125 C 123.796875 -4.28125 124.5625 -4.207031 125.25 -4.128906 C 125.941406 -4.050781 126.554688 -3.824219 127.164062 -3.59375 C 128.390625 -3.054688 129.308594 -2.136719 130 -1.0625 C 130.304688 -0.527344 130.535156 0.0859375 130.609375 0.621094 C 130.761719 1.234375 130.761719 1.921875 130.839844 2.535156 C 130.839844 2.84375 130.839844 3.148438 130.839844 3.457031 C 130.839844 3.839844 130.839844 4.222656 130.839844 4.605469 L 130.839844 26.285156 C 130.839844 26.667969 130.839844 27.050781 130.839844 27.4375 C 130.839844 27.742188 130.839844 28.046875 130.839844 28.433594 C 130.839844 29.042969 130.761719 29.734375 130.609375 30.347656 C 130.535156 30.960938 130.304688 31.496094 130 32.109375 C 129.691406 32.644531 129.308594 33.105469 128.851562 33.566406 C 128.390625 34.023438 127.855469 34.332031 127.242188 34.636719 C 126.628906 34.945312 126.015625 35.097656 125.328125 35.171875 C 124.640625 35.25 123.875 35.328125 123.183594 35.328125 C 122.878906 35.328125 122.496094 35.328125 122.113281 35.328125 L 120.886719 35.328125 Z M 3.074219 35.25"/><path d="M 0.167969 0.160156 L 29.257812 0.160156 L 29.257812 29.273438 L 0.167969 29.273438 Z M 0.167969 0.160156"/></g><path fill="#F4F5EF" d="M 26.195312 7.132812 C 26.347656 7.210938 26.421875 7.285156 26.5 7.441406 C 26.5 7.441406 26.5 7.441406 26.5 7.515625 C 26.5 7.59375 26.578125 7.667969 26.578125 7.746094 L 26.578125 12.648438 C 26.578125 13.03125 26.269531 13.339844 25.886719 13.339844 C 25.503906 13.339844 25.199219 13.03125 25.199219 12.648438 L 25.199219 8.894531 L 21.984375 10.503906 C 21.601562 10.65625 21.21875 10.503906 21.066406 10.199219 C 20.910156 9.816406 21.066406 9.433594 21.371094 9.277344 L 24.355469 7.824219 L 21.371094 6.289062 C 20.988281 6.136719 20.910156 5.675781 21.066406 5.371094 C 21.21875 4.988281 21.675781 4.910156 21.984375 5.066406 Z M 26.578125 21.765625 C 26.578125 21.84375 26.578125 21.996094 26.5 22.074219 C 26.5 22.148438 26.421875 22.226562 26.347656 22.300781 C 26.347656 22.378906 26.269531 22.378906 26.195312 22.457031 L 21.984375 24.523438 C 21.601562 24.675781 21.21875 24.523438 21.066406 24.21875 C 20.910156 23.835938 21.066406 23.453125 21.371094 23.296875 L 24.355469 21.84375 L 21.371094 20.386719 C 20.988281 20.234375 20.910156 19.773438 21.066406 19.46875 C 21.21875 19.085938 21.675781 19.007812 21.984375 19.160156 L 25.199219 20.769531 L 25.199219 17.015625 C 25.199219 16.632812 25.503906 16.328125 25.886719 16.328125 C 26.269531 16.328125 26.578125 16.632812 26.578125 17.015625 Z M 5.066406 21.765625 L 8.050781 23.222656 C 8.433594 23.375 8.511719 23.835938 8.355469 24.140625 C 8.203125 24.523438 7.746094 24.601562 7.4375 24.449219 L 3.226562 22.457031 C 3.074219 22.378906 3 22.300781 2.921875 22.148438 C 2.921875 22.148438 2.921875 22.148438 2.921875 22.074219 C 2.921875 21.996094 2.84375 21.917969 2.84375 21.84375 L 2.84375 16.941406 C 2.84375 16.558594 3.152344 16.25 3.535156 16.25 C 3.917969 16.25 4.222656 16.558594 4.222656 16.941406 L 4.222656 20.695312 L 7.4375 19.085938 C 7.820312 18.933594 8.203125 19.085938 8.355469 19.390625 C 8.511719 19.773438 8.355469 20.15625 8.050781 20.3125 Z M 4.222656 8.894531 L 4.222656 12.648438 C 4.222656 13.03125 3.917969 13.339844 3.535156 13.339844 C 3.152344 13.339844 2.84375 13.03125 2.84375 12.648438 L 2.84375 7.824219 C 2.84375 7.746094 2.84375 7.59375 2.921875 7.515625 C 2.921875 7.441406 3 7.363281 3.074219 7.285156 C 3.152344 7.210938 3.226562 7.210938 3.226562 7.132812 L 7.4375 5.066406 C 7.820312 4.910156 8.203125 5.066406 8.355469 5.371094 C 8.511719 5.753906 8.355469 6.136719 8.050781 6.289062 L 5.066406 7.824219 L 8.050781 9.277344 C 8.433594 9.433594 8.511719 9.890625 8.355469 10.199219 C 8.203125 10.582031 7.746094 10.65625 7.4375 10.503906 Z M 14.40625 1.539062 C 14.480469 1.464844 14.632812 1.464844 14.710938 1.464844 C 14.863281 1.464844 14.941406 1.464844 15.015625 1.539062 L 19.226562 3.609375 C 19.609375 3.761719 19.6875 4.222656 19.535156 4.527344 C 19.382812 4.910156 18.921875 4.988281 18.617188 4.835938 L 15.398438 3.226562 L 15.398438 7.058594 C 15.398438 7.441406 15.09375 7.746094 14.710938 7.746094 C 14.328125 7.746094 14.023438 7.441406 14.023438 7.058594 L 14.023438 3.300781 L 10.808594 4.910156 C 10.425781 5.066406 10.042969 4.910156 9.886719 4.605469 C 9.734375 4.222656 9.886719 3.839844 10.195312 3.6875 Z M 15.015625 28.046875 C 14.941406 28.125 14.789062 28.125 14.710938 28.125 C 14.558594 28.125 14.480469 28.125 14.40625 28.046875 L 10.195312 25.980469 C 9.8125 25.828125 9.734375 25.367188 9.886719 25.0625 C 10.042969 24.675781 10.5 24.601562 10.808594 24.753906 L 14.023438 26.363281 L 14.023438 22.609375 C 14.023438 22.226562 14.328125 21.917969 14.710938 21.917969 C 15.09375 21.917969 15.398438 22.226562 15.398438 22.609375 L 15.398438 26.363281 L 18.617188 24.753906 C 19 24.601562 19.382812 24.753906 19.535156 25.0625 C 19.6875 25.445312 19.535156 25.828125 19.226562 25.980469 Z M 15.398438 13.796875 L 15.398438 17.550781 C 15.398438 17.9375 15.09375 18.242188 14.710938 18.242188 C 14.328125 18.242188 14.023438 17.9375 14.023438 17.550781 L 14.023438 13.796875 L 10.195312 11.882812 C 9.8125 11.730469 9.734375 11.269531 9.886719 10.964844 C 10.042969 10.582031 10.5 10.503906 10.808594 10.65625 L 14.710938 12.574219 L 18.617188 10.65625 C 19 10.503906 19.382812 10.65625 19.535156 10.964844 C 19.6875 11.347656 19.535156 11.730469 19.226562 11.882812 Z M 15.398438 13.796875"/></svg>