<svg xmlns="http://www.w3.org/2000/svg" width="30" viewBox="0 0 30 30" height="30" version="1.0"><path fill="#F4F5EF" d="M 27.703125 14.515625 C 27.703125 10.960938 22.125 8.164062 15 8.164062 L 15.921875 7.472656 C 16.089844 7.347656 16.175781 7.144531 16.152344 6.941406 C 16.125 6.738281 15.992188 6.5625 15.804688 6.480469 C 15.613281 6.398438 15.394531 6.425781 15.230469 6.546875 L 12.921875 8.28125 L 12.804688 8.417969 C 12.730469 8.570312 12.730469 8.75 12.804688 8.90625 L 12.921875 9.042969 L 15.230469 10.773438 C 15.332031 10.851562 15.453125 10.890625 15.578125 10.890625 C 15.757812 10.886719 15.929688 10.804688 16.039062 10.660156 C 16.230469 10.40625 16.179688 10.042969 15.921875 9.851562 L 15 9.320312 C 21.257812 9.320312 26.546875 11.699219 26.546875 14.515625 C 26.546875 16.363281 24.238281 17.980469 20.957031 18.9375 C 21.222656 17.480469 21.355469 16 21.351562 14.515625 L 22.054688 15.441406 C 22.167969 15.632812 22.378906 15.746094 22.605469 15.726562 C 22.828125 15.707031 23.019531 15.5625 23.097656 15.351562 C 23.175781 15.144531 23.125 14.90625 22.96875 14.746094 L 21.234375 12.4375 L 21.097656 12.320312 L 21.039062 12.320312 C 20.886719 12.246094 20.707031 12.246094 20.554688 12.320312 L 20.496094 12.320312 L 20.359375 12.4375 L 18.625 14.746094 C 18.433594 15.003906 18.484375 15.363281 18.742188 15.554688 C 18.839844 15.632812 18.960938 15.671875 19.085938 15.671875 C 19.269531 15.667969 19.4375 15.582031 19.550781 15.441406 L 20.242188 14.515625 C 20.246094 16.101562 20.085938 17.683594 19.769531 19.238281 C 18.199219 19.558594 16.601562 19.71875 15 19.710938 C 13.414062 19.714844 11.832031 19.554688 10.277344 19.238281 C 9.960938 17.683594 9.800781 16.101562 9.804688 14.515625 C 9.804688 8.257812 12.183594 2.96875 15 2.96875 C 16.292969 2.96875 17.539062 4.125 18.523438 6.109375 C 18.613281 6.296875 18.796875 6.417969 19 6.433594 C 19.207031 6.445312 19.40625 6.351562 19.519531 6.179688 C 19.636719 6.007812 19.652344 5.789062 19.5625 5.601562 C 18.371094 3.164062 16.753906 1.816406 15 1.816406 C 11.445312 1.816406 8.648438 7.390625 8.648438 14.515625 C 8.644531 16 8.777344 17.480469 9.042969 18.9375 C 5.761719 17.980469 3.453125 16.363281 3.453125 14.515625 C 3.453125 13.210938 4.609375 11.964844 6.59375 11.050781 C 6.78125 10.960938 6.902344 10.777344 6.917969 10.570312 C 6.929688 10.367188 6.835938 10.167969 6.664062 10.050781 C 6.492188 9.9375 6.269531 9.921875 6.085938 10.011719 C 3.648438 11.121094 2.296875 12.738281 2.296875 14.515625 C 2.296875 17.042969 5.128906 19.136719 9.308594 20.207031 C 10.382812 24.390625 12.472656 27.21875 15 27.21875 C 17.527344 27.21875 19.617188 24.390625 20.691406 20.207031 C 24.871094 19.136719 27.703125 17.042969 27.703125 14.515625 Z M 15 26.0625 C 13.152344 26.0625 11.535156 23.753906 10.578125 20.472656 C 12.035156 20.738281 13.515625 20.871094 15 20.867188 C 16.484375 20.871094 17.964844 20.738281 19.421875 20.472656 C 18.464844 23.753906 16.847656 26.0625 15 26.0625 Z M 15 26.0625"/><path fill="#F4F5EF" d="M 12.921875 8.28125 L 15.230469 6.550781 C 15.394531 6.425781 15.613281 6.398438 15.804688 6.480469 C 15.992188 6.5625 16.125 6.738281 16.152344 6.941406 C 16.175781 7.144531 16.089844 7.347656 15.921875 7.472656 L 15 8.164062 C 15.199219 8.164062 15.398438 8.167969 15.597656 8.171875 C 22.433594 8.324219 27.703125 11.058594 27.703125 14.515625 C 27.703125 17.046875 24.871094 19.136719 20.691406 20.207031 C 19.617188 24.390625 17.527344 27.21875 15 27.21875 C 12.472656 27.21875 10.382812 24.390625 9.308594 20.207031 C 5.128906 19.136719 2.296875 17.046875 2.296875 14.515625 C 2.296875 12.738281 3.648438 11.121094 6.085938 10.011719 C 6.269531 9.921875 6.492188 9.9375 6.664062 10.050781 C 6.835938 10.167969 6.929688 10.367188 6.917969 10.574219 C 6.902344 10.777344 6.78125 10.960938 6.59375 11.050781 C 4.609375 11.964844 3.453125 13.210938 3.453125 14.515625 C 3.453125 16.289062 5.582031 17.851562 8.652344 18.820312 C 8.78125 18.859375 8.910156 18.898438 9.042969 18.9375 C 9.019531 18.804688 8.996094 18.671875 8.972656 18.539062 C 8.753906 17.210938 8.644531 15.863281 8.648438 14.515625 C 8.648438 7.390625 11.445312 1.816406 15 1.816406 C 16.753906 1.816406 18.371094 3.164062 19.5625 5.601562 C 19.652344 5.789062 19.636719 6.007812 19.519531 6.179688 C 19.40625 6.351562 19.207031 6.449219 19 6.433594 C 18.796875 6.417969 18.613281 6.296875 18.523438 6.109375 C 17.539062 4.125 16.292969 2.96875 15 2.96875 C 12.183594 2.96875 9.804688 8.257812 9.804688 14.515625 C 9.800781 16.101562 9.960938 17.683594 10.277344 19.238281 C 11.832031 19.554688 13.414062 19.714844 15 19.710938 C 16.601562 19.71875 18.199219 19.558594 19.769531 19.238281 C 20.042969 17.886719 20.199219 16.511719 20.234375 15.128906 C 20.238281 14.925781 20.242188 14.722656 20.242188 14.515625 L 19.550781 15.441406 C 19.4375 15.582031 19.269531 15.667969 19.085938 15.671875 C 18.960938 15.671875 18.839844 15.632812 18.742188 15.554688 C 18.484375 15.363281 18.433594 15.003906 18.625 14.746094 L 20.359375 12.4375 L 20.496094 12.324219 L 20.554688 12.324219 C 20.707031 12.246094 20.886719 12.246094 21.039062 12.324219 L 21.097656 12.324219 L 21.234375 12.4375 L 22.96875 14.746094 C 23.125 14.90625 23.175781 15.144531 23.097656 15.351562 C 23.019531 15.5625 22.828125 15.707031 22.605469 15.726562 C 22.378906 15.746094 22.167969 15.632812 22.054688 15.441406 L 21.351562 14.515625 C 21.351562 14.714844 21.347656 14.910156 21.34375 15.105469 C 21.320312 16.257812 21.214844 17.402344 21.027344 18.539062 C 21.003906 18.671875 20.980469 18.804688 20.957031 18.9375 C 21.089844 18.898438 21.21875 18.859375 21.347656 18.820312 C 24.417969 17.851562 26.546875 16.289062 26.546875 14.515625 C 26.546875 11.8125 21.675781 9.511719 15.746094 9.332031 C 15.5 9.324219 15.25 9.320312 15 9.320312 L 15.921875 9.851562 C 16.179688 10.042969 16.230469 10.40625 16.039062 10.660156 C 15.929688 10.804688 15.757812 10.890625 15.578125 10.890625 C 15.453125 10.890625 15.332031 10.851562 15.230469 10.773438 L 12.921875 9.042969 L 12.804688 8.90625 C 12.730469 8.75 12.730469 8.570312 12.804688 8.417969 Z M 15.011719 11.0625 L 12.667969 9.308594 L 12.5 9.105469 L 12.480469 9.066406 C 12.355469 8.8125 12.355469 8.511719 12.480469 8.257812 L 12.5 8.21875 L 12.667969 8.015625 L 15.011719 6.257812 C 15.28125 6.058594 15.636719 6.015625 15.945312 6.144531 C 16.253906 6.277344 16.46875 6.566406 16.511719 6.898438 C 16.550781 7.230469 16.410156 7.5625 16.140625 7.761719 L 16.0625 7.824219 C 19.238281 7.945312 22.070312 8.625 24.183594 9.683594 C 26.511719 10.847656 28.066406 12.53125 28.066406 14.515625 C 28.066406 15.929688 27.273438 17.179688 25.988281 18.191406 C 24.75 19.171875 23.019531 19.960938 20.988281 20.507812 C 20.445312 22.539062 19.65625 24.265625 18.675781 25.507812 C 17.664062 26.789062 16.414062 27.582031 15 27.582031 C 13.585938 27.582031 12.335938 26.789062 11.324219 25.507812 C 10.34375 24.265625 9.554688 22.539062 9.011719 20.507812 C 6.980469 19.960938 5.25 19.171875 4.011719 18.191406 C 2.726562 17.179688 1.933594 15.929688 1.933594 14.515625 C 1.933594 12.53125 3.441406 10.820312 5.929688 9.683594 C 6.234375 9.539062 6.589844 9.566406 6.867188 9.75 C 7.144531 9.941406 7.300781 10.261719 7.277344 10.597656 C 7.253906 10.933594 7.054688 11.230469 6.753906 11.378906 L 6.746094 11.382812 C 4.789062 12.28125 3.816406 13.4375 3.816406 14.515625 C 3.816406 15.277344 4.292969 16.050781 5.238281 16.773438 C 6.066406 17.40625 7.21875 17.96875 8.585938 18.417969 C 8.382812 17.128906 8.28125 15.824219 8.285156 14.515625 C 8.285156 10.910156 8.992188 7.675781 10.167969 5.332031 C 11.332031 3.003906 13.015625 1.453125 15 1.453125 C 16.960938 1.453125 18.675781 2.957031 19.886719 5.441406 C 20.035156 5.746094 20.011719 6.101562 19.820312 6.382812 C 19.632812 6.660156 19.3125 6.816406 18.976562 6.796875 C 18.640625 6.773438 18.34375 6.570312 18.195312 6.269531 C 17.71875 5.304688 17.1875 4.5625 16.636719 4.066406 C 16.085938 3.570312 15.53125 3.332031 15 3.332031 C 14.417969 3.332031 13.824219 3.605469 13.25 4.15625 C 12.675781 4.707031 12.136719 5.519531 11.675781 6.542969 C 10.753906 8.59375 10.167969 11.429688 10.167969 14.515625 C 10.164062 15.996094 10.304688 17.476562 10.585938 18.929688 C 12.039062 19.210938 13.519531 19.351562 15 19.347656 C 16.496094 19.355469 17.992188 19.214844 19.460938 18.929688 C 19.671875 17.84375 19.800781 16.742188 19.855469 15.640625 L 19.835938 15.660156 C 19.660156 15.894531 19.382812 16.03125 19.089844 16.035156 C 18.886719 16.035156 18.6875 15.96875 18.523438 15.84375 C 18.109375 15.535156 18.023438 14.945312 18.335938 14.53125 L 20.09375 12.1875 L 20.363281 11.960938 L 20.480469 11.960938 C 20.683594 11.882812 20.910156 11.882812 21.113281 11.960938 L 21.226562 11.960938 L 21.5 12.1875 L 23.246094 14.511719 C 23.484375 14.773438 23.558594 15.144531 23.4375 15.480469 C 23.308594 15.820312 22.996094 16.058594 22.632812 16.089844 C 22.28125 16.117188 21.941406 15.945312 21.753906 15.644531 L 21.695312 15.566406 C 21.65625 16.519531 21.5625 17.472656 21.414062 18.417969 C 22.78125 17.96875 23.933594 17.40625 24.761719 16.773438 C 25.707031 16.050781 26.183594 15.277344 26.183594 14.515625 C 26.183594 13.933594 25.910156 13.339844 25.359375 12.765625 C 24.808594 12.191406 23.996094 11.652344 22.972656 11.191406 C 21.214844 10.402344 18.882812 9.859375 16.304688 9.71875 C 16.574219 10.046875 16.59375 10.523438 16.328125 10.878906 C 16.148438 11.113281 15.875 11.25 15.582031 11.253906 C 15.375 11.253906 15.175781 11.1875 15.011719 11.0625 Z M 12.742188 24.277344 C 13.464844 25.222656 14.238281 25.699219 15 25.699219 C 15.761719 25.699219 16.535156 25.222656 17.257812 24.277344 C 17.890625 23.449219 18.453125 22.296875 18.902344 20.929688 C 17.609375 21.132812 16.308594 21.234375 15 21.230469 C 13.691406 21.234375 12.390625 21.132812 11.097656 20.929688 C 11.546875 22.296875 12.109375 23.449219 12.742188 24.277344 Z M 10.695312 20.863281 C 10.65625 20.734375 10.617188 20.605469 10.578125 20.472656 C 10.710938 20.5 10.84375 20.523438 10.976562 20.542969 C 12.304688 20.761719 13.652344 20.871094 15 20.867188 C 16.347656 20.871094 17.695312 20.761719 19.023438 20.542969 M 19.421875 20.472656 C 19.382812 20.605469 19.34375 20.734375 19.304688 20.863281 C 18.335938 23.933594 16.773438 26.0625 15 26.0625 C 13.226562 26.0625 11.664062 23.933594 10.695312 20.863281" fill-rule="evenodd"/></svg>